<?xml version="1.0" encoding="UTF-8" standalone="no"?>
<!-- Generator: Gravit.io -->
<svg xmlns="http://www.w3.org/2000/svg" xmlns:xlink="http://www.w3.org/1999/xlink" style="isolation:isolate" viewBox="0 0 35 40" width="35pt" height="40pt"><defs><clipPath id="_clipPath_idGZxvnzAmd8Dx2TbXjDsu4A7alX4Xal"><rect width="35" height="40"/></clipPath></defs><g clip-path="url(#_clipPath_idGZxvnzAmd8Dx2TbXjDsu4A7alX4Xal)"><path d=" M 17.5 3 C 8.109 3 0.5 10.609 0.5 20 C 0.5 29.391 8.109 37 17.5 37 C 26.891 37 34.5 29.391 34.5 20 C 34.5 10.609 26.891 3 17.5 3 Z  M 17.5 5.833 C 25.324 5.833 31.667 12.176 31.667 20 C 31.667 27.824 25.324 34.167 17.5 34.167 C 9.676 34.167 3.333 27.824 3.333 20 C 3.333 12.176 9.676 5.833 17.5 5.833 Z  M 15.994 8.49 L 15.375 20.089 L 15.508 21.327 L 24.229 29.031 L 25.602 27.615 L 18.385 19.956 L 17.765 8.49 L 15.994 8.49 Z " fill="rgb(52,73,94)"/></g></svg>