<?xml version="1.0" encoding="UTF-8" standalone="no"?>
<!-- Generator: Gravit.io -->
<svg xmlns="http://www.w3.org/2000/svg" xmlns:xlink="http://www.w3.org/1999/xlink" style="isolation:isolate" viewBox="0 0 200 200" width="200pt" height="200pt"><defs><clipPath id="_clipPath_fRxB5QXI2CzYrgzT5ASG9nREg5ICEgGQ"><rect width="200" height="200"/></clipPath></defs><g clip-path="url(#_clipPath_fRxB5QXI2CzYrgzT5ASG9nREg5ICEgGQ)"><path d=" M 98.99 2.929 L 98.227 3.176 L 33.512 18.347 L 27.194 19.867 L 27.194 183.679 L 33.774 184.689 L 98.485 196.824 L 99.237 197.071 L 116.18 197.071 L 116.18 2.929 L 98.99 2.929 Z  M 132.355 19.104 L 132.355 35.284 L 156.626 35.284 L 156.626 164.716 L 132.355 164.716 L 132.355 180.896 L 172.806 180.896 L 172.806 19.104 L 132.355 19.104 Z  M 100 19.357 L 100 180.896 L 43.374 170.271 L 43.374 32.512 L 100 19.357 Z  M 86.602 91.91 C 83.633 91.91 81.037 95.551 81.037 100 C 81.037 104.449 83.628 108.09 86.602 108.09 C 89.572 108.09 91.91 104.449 91.91 100 C 91.91 95.551 89.567 91.91 86.602 91.91 Z " fill="rgb(255,255,255)"/></g></svg>