<?xml version="1.0" encoding="UTF-8" standalone="no"?>
<!-- Generator: Gravit.io -->
<svg xmlns="http://www.w3.org/2000/svg" xmlns:xlink="http://www.w3.org/1999/xlink" style="isolation:isolate" viewBox="0 0 35 40" width="35pt" height="40pt"><defs><clipPath id="_clipPath_qg2r9LdZjumib4myXbL4BaBjF58cqPAd"><rect width="35" height="40"/></clipPath></defs><g clip-path="url(#_clipPath_qg2r9LdZjumib4myXbL4BaBjF58cqPAd)"><path d=" M 17.3 0.778 L 17.149 0.827 L 4.334 3.831 L 3.083 4.132 L 3.083 36.57 L 4.386 36.77 L 17.2 39.173 L 17.349 39.222 L 20.704 39.222 L 20.704 0.778 L 17.3 0.778 Z  M 23.907 3.981 L 23.907 7.185 L 28.713 7.185 L 28.713 32.815 L 23.907 32.815 L 23.907 36.019 L 31.917 36.019 L 31.917 3.981 L 23.907 3.981 Z  M 17.5 4.031 L 17.5 36.019 L 6.287 33.915 L 6.287 6.636 L 17.5 4.031 Z  M 14.847 18.398 C 14.259 18.398 13.745 19.119 13.745 20 C 13.745 20.881 14.258 21.602 14.847 21.602 C 15.435 21.602 15.898 20.881 15.898 20 C 15.898 19.119 15.434 18.398 14.847 18.398 Z " fill="rgb(52,73,94)"/></g></svg>