<?xml version="1.0" encoding="UTF-8" standalone="no"?>
<!-- Generator: Gravit.io -->
<svg xmlns="http://www.w3.org/2000/svg" xmlns:xlink="http://www.w3.org/1999/xlink" style="isolation:isolate" viewBox="0 0 200 200" width="200pt" height="200pt"><defs><clipPath id="_clipPath_9qYgmJuOkLZxIGvPrzdRLSeFpL6MXgEH"><rect width="200" height="200"/></clipPath></defs><g clip-path="url(#_clipPath_9qYgmJuOkLZxIGvPrzdRLSeFpL6MXgEH)"><path d=" M 99.924 17.727 C 65.178 17.727 44.612 39.815 44.612 39.815 C 43.085 41.561 42.627 44 43.415 46.182 L 72.067 126.166 C 72.793 128.255 74.532 129.796 76.671 130.299 C 78.836 130.77 81.071 130.12 82.618 128.554 C 82.618 128.554 98.803 113.235 112.461 113.235 C 121.12 113.235 126.214 114.655 131.562 116.221 C 136.911 117.787 142.781 119.602 150.664 119.602 C 166.455 119.602 179.119 112.439 179.119 112.439 C 181.182 111.344 182.475 109.204 182.5 106.867 L 182.5 24.094 C 182.5 21.655 181.106 19.42 178.896 18.351 C 176.69 17.277 174.063 17.575 172.153 19.115 C 172.153 19.115 157.254 30.461 144.494 30.461 C 138.102 30.461 132.982 27.927 126.189 24.692 C 119.401 21.458 111.066 17.727 99.924 17.727 Z  M 99.924 30.461 C 101.669 30.461 103.33 30.659 104.897 30.862 L 110.271 51.352 C 116.039 51.352 132.161 59.311 132.161 59.311 L 127.583 39.216 C 132.505 41.33 137.879 43.196 144.494 43.196 C 147.856 43.196 150.989 42.699 154.045 41.999 L 155.637 61.699 C 155.637 61.699 161.832 60.056 169.766 55.331 L 169.766 81.8 C 165.867 83.489 161.798 84.755 157.63 85.576 L 159.222 105.874 C 156.411 106.5 153.543 106.833 150.664 106.867 C 147.78 106.867 145.29 106.594 142.902 106.072 L 138.127 85.378 C 132.136 83.812 122.464 81.023 118.032 80.405 L 123.603 101.296 C 119.915 100.748 116.19 100.482 112.461 100.5 C 107.813 100.5 103.706 101.347 99.924 102.493 L 92.366 82.589 C 85.349 85.302 78.613 90.402 74.06 94.133 L 63.714 65.283 C 69.278 61.123 75.364 57.71 81.816 55.134 L 74.067 35.237 C 80.727 32.524 89.252 30.461 99.918 30.461 L 99.924 30.461 Z  M 81.816 55.134 L 92.366 82.596 C 92.366 82.596 100.924 79.603 106.692 79.603 C 112.461 79.603 118.032 80.405 118.032 80.405 L 110.271 51.346 C 110.271 51.346 108.208 50.951 105.495 50.951 C 92.563 50.951 81.816 55.128 81.816 55.128 L 81.816 55.134 Z  M 138.127 85.378 C 138.127 85.378 144.176 86.575 148.276 86.575 C 152.383 86.575 157.63 85.576 157.63 85.576 L 155.637 61.699 C 155.637 61.699 151.708 62.896 146.882 62.896 C 139.369 62.896 132.161 59.311 132.161 59.311 L 138.127 85.378 Z  M 33.47 34.638 C 32.603 34.531 31.724 34.598 30.884 34.835 L 27.3 35.835 C 26.458 35.937 25.646 36.208 24.912 36.631 L 22.123 37.427 C 18.749 38.395 16.775 42.024 17.749 45.386 C 18.596 48.296 21.404 50.136 24.313 49.958 L 70.278 177.301 C 70.808 179.705 72.679 181.585 75.079 182.128 C 77.47 182.673 79.962 181.798 81.486 179.876 C 83.009 177.954 83.294 175.328 82.217 173.124 L 36.449 46.188 C 38.519 44.647 39.588 41.833 38.843 39.222 C 38.134 36.756 36.017 34.953 33.47 34.644 L 33.47 34.638 Z " fill="rgb(255,255,255)"/></g></svg>