<?xml version="1.0" encoding="UTF-8" standalone="no"?>
<!-- Generator: Gravit.io -->
<svg xmlns="http://www.w3.org/2000/svg" xmlns:xlink="http://www.w3.org/1999/xlink" style="isolation:isolate" viewBox="0 0 200 200" width="200pt" height="200pt"><defs><clipPath id="_clipPath_fZXQP9YDBDJQqqJe7gHKJ1ydKhTqL2nu"><rect width="200" height="200"/></clipPath></defs><g clip-path="url(#_clipPath_fZXQP9YDBDJQqqJe7gHKJ1ydKhTqL2nu)"><path d=" M 111.399 1.45 C 105.591 1.756 101.04 6.554 101.04 12.37 C 101.04 18.185 105.591 22.983 111.399 23.29 C 117.206 22.983 121.758 18.185 121.758 12.37 C 121.758 6.554 117.206 1.756 111.399 1.45 Z  M 62.004 31.368 L 62.004 46.566 L 69.603 46.566 L 69.603 90.261 C 69.391 90.942 69.07 91.583 68.653 92.161 C 66.946 94.544 65.123 96.842 63.189 99.046 C 58.326 104.593 51.639 111.721 44.906 119.473 C 38.165 127.224 31.25 135.56 25.908 143.691 C 20.566 151.822 16.409 159.513 16.409 168.153 C 16.409 175.547 19.084 181.984 23.058 186.437 C 27.033 190.89 32.025 193.504 36.592 195.229 C 45.765 198.664 54.405 198.55 54.405 198.55 L 145.595 198.55 C 145.595 198.55 154.235 198.671 163.408 195.221 C 167.975 193.504 172.967 190.89 176.942 186.437 C 180.916 181.984 183.591 175.547 183.591 168.153 C 183.591 159.513 179.434 151.83 174.092 143.691 C 168.75 135.56 161.835 127.216 155.094 119.473 C 148.354 111.721 141.674 104.601 136.811 99.046 C 134.379 96.288 132.532 93.795 131.347 92.161 C 130.93 91.583 130.609 90.942 130.397 90.261 L 130.397 46.566 L 137.996 46.566 L 137.996 31.368 L 62.004 31.368 Z  M 84.802 46.566 L 115.198 46.566 L 115.198 92.161 C 115.198 97.655 117.273 98.81 118.998 101.189 C 120.723 103.56 122.858 106.083 125.412 109.016 C 128.793 112.907 133.277 117.831 137.517 122.558 L 74.824 122.558 C 74.824 122.558 45.141 163.404 44.67 181.93 C 43.707 181.654 42.757 181.337 41.821 180.981 C 38.788 179.848 36.182 178.184 34.457 176.231 C 32.732 174.27 31.607 172.15 31.607 168.153 C 31.607 165.455 34.1 159.102 38.735 152.005 C 43.363 144.907 49.747 136.958 56.305 129.443 C 62.863 121.935 69.482 114.868 74.588 109.024 C 77.142 106.083 79.277 103.56 81.002 101.189 C 82.727 98.81 84.802 97.655 84.802 92.161 L 84.802 46.566 Z  M 96.679 62.243 C 90.872 62.55 86.32 67.348 86.32 73.163 C 86.32 78.979 90.872 83.777 96.679 84.083 C 102.486 83.777 107.038 78.979 107.038 73.163 C 107.038 67.348 102.486 62.55 96.679 62.243 Z  M 88.366 129.922 C 94.901 129.922 100.236 135.264 100.236 141.792 C 100.236 148.327 94.893 153.669 88.366 153.669 C 81.83 153.669 76.488 148.327 76.488 141.792 C 76.488 135.256 81.83 129.922 88.366 129.922 Z  M 122.798 144.641 C 131.643 144.641 138.71 151.708 138.71 160.554 C 138.71 169.399 131.643 176.467 122.798 176.467 C 118.571 176.487 114.512 174.817 111.523 171.828 C 108.535 168.84 106.865 164.78 106.885 160.554 C 106.885 151.708 113.952 144.641 122.798 144.641 Z " fill="rgb(255,255,255)"/></g></svg>