<?xml version="1.0" encoding="UTF-8" standalone="no"?>
<!-- Generator: Gravit.io -->
<svg xmlns="http://www.w3.org/2000/svg" xmlns:xlink="http://www.w3.org/1999/xlink" style="isolation:isolate" viewBox="0 0 100 100" width="100pt" height="100pt"><defs><clipPath id="_clipPath_adGTHbvAtaMAZf6L9DoAz7chPnOygSqx"><rect width="100" height="100"/></clipPath></defs><g clip-path="url(#_clipPath_adGTHbvAtaMAZf6L9DoAz7chPnOygSqx)"><g><path d=" M 57.204 42.026 L 38.238 49.582 L 39.422 52.468 C 39.611 52.925 39.972 53.295 40.425 53.486 L 45.835 55.804 C 46.296 55.999 46.814 56.006 47.28 55.823 L 54.996 52.734 C 55.461 52.547 55.834 52.184 56.033 51.724 L 58.353 46.318 C 58.551 45.852 58.555 45.327 58.366 44.858 L 57.204 42.026 Z " fill="rgb(255,255,255)"/><mask id="_mask_im2df750CF7llgKYo5wzY1j65AIm3NAY" x="-200%" y="-200%" width="400%" height="400%"><rect x="-200%" y="-200%" width="400%" height="400%" style="fill:white;"/><line x1="69.841" y1="56.446" x2="43.821" y2="67.114" fill="black" stroke="none"/></mask><line x1="69.841" y1="56.446" x2="43.821" y2="67.114" mask="url(#_mask_im2df750CF7llgKYo5wzY1j65AIm3NAY)" vector-effect="non-scaling-stroke" stroke-width="2.64" stroke="rgb(255,255,255)" stroke-linejoin="round" stroke-linecap="round" stroke-miterlimit="10"/><path d=" M 82.111 97.174 L 17.889 97.174 C 16.846 97.174 16 96.329 16 95.285 L 16 93.396 C 16 90.272 18.437 87.73 21.431 87.73 L 78.569 87.73 C 81.563 87.73 84 90.272 84 93.396 L 84 95.285 C 84 96.329 83.154 97.174 82.111 97.174 Z  M 33 84.109 C 25.622 84.109 19.621 78.108 19.621 70.73 C 19.621 63.352 25.624 57.351 33 57.351 C 40.376 57.351 46.379 63.352 46.379 70.73 C 46.379 78.108 40.378 84.109 33 84.109 Z  M 77.134 76.784 C 76.063 74.043 73.427 72.234 70.485 72.222 C 69.609 72.222 68.745 72.383 67.927 72.7 L 49.307 79.874 C 48.782 80.084 48.141 80.08 47.459 79.925 C 46.496 81.444 45.301 82.802 43.918 83.952 L 75.872 83.952 C 76.312 83.436 76.711 82.872 76.996 82.231 C 77.77 80.492 77.821 78.559 77.134 76.784 Z  M 55.805 38.517 L 47.628 18.734 C 47.108 17.427 46.732 16.485 45.657 16.024 C 44.585 15.565 43.651 15.943 42.248 16.509 L 31.036 21.08 C 27.962 22.308 27.484 23.419 28.737 26.556 L 36.834 46.074 L 55.805 38.517 Z  M 27.432 15.608 L 28.856 15.017 L 29.919 17.457 L 40.478 13.153 L 39.39 10.65 L 40.969 9.996 C 41.661 9.707 42.197 9.167 42.478 8.474 C 42.762 7.788 42.758 7.031 42.473 6.36 L 41.832 4.496 C 41.241 3.132 39.551 2.46 38.204 3.028 L 24.664 8.636 C 23.257 9.235 22.59 10.852 23.165 12.269 L 23.797 14.099 C 24.077 14.783 24.618 15.327 25.3 15.611 C 25.982 15.894 26.75 15.893 27.432 15.608 Z  M 31.398 42.829 L 25.711 29.121 C 17.638 33.9 14.017 43.994 17.64 52.946 L 20.282 59.253 C 23.425 55.775 27.955 53.573 32.998 53.573 C 33.064 53.573 33.128 53.582 33.195 53.582 L 30.83 47.583 C 30.198 46.005 30.413 44.214 31.398 42.829 Z " fill="rgb(255,255,255)"/></g></g></svg>