<?xml version="1.0" encoding="UTF-8" standalone="no"?>
<!-- Generator: Gravit.io -->
<svg xmlns="http://www.w3.org/2000/svg" xmlns:xlink="http://www.w3.org/1999/xlink" style="isolation:isolate" viewBox="0 0 200 200" width="200pt" height="200pt"><defs><clipPath id="_clipPath_yS7Ora6oXRq4fAXh01yj06DFSIUNfJz7"><rect width="200" height="200"/></clipPath></defs><g clip-path="url(#_clipPath_yS7Ora6oXRq4fAXh01yj06DFSIUNfJz7)"><path d=" M 28.75 6.25 C 26.688 6.25 25 7.938 25 10 L 25 175 C 25 177.071 26.679 178.75 28.75 178.75 L 156.25 178.75 C 158.331 178.75 160 177.081 160 175 L 160 10 C 160 7.929 158.321 6.25 156.25 6.25 L 28.75 6.25 Z  M 167.5 21.25 L 167.5 175 C 167.5 181.195 162.445 186.25 156.25 186.25 L 40 186.25 L 40 190 C 40 192.071 41.679 193.75 43.75 193.75 L 171.25 193.75 C 173.331 193.75 175 192.081 175 190 L 175 25 C 175 22.929 173.321 21.25 171.25 21.25 L 167.5 21.25 Z  M 93.201 45.625 C 107.823 45.625 117.576 54.97 117.576 68.478 C 117.576 74.849 115.394 79.803 110.901 86.17 L 101.875 98.481 C 99.25 102.231 98.478 104.181 98.478 108.674 L 98.478 112.776 C 98.478 113.526 98.08 114.302 96.951 114.302 L 88.045 114.302 C 87.666 114.302 86.875 113.523 86.875 112.776 L 86.875 107.151 C 86.875 101.909 87.974 98.834 90.978 95.084 L 100 82.769 C 104.875 76.398 106.33 73.353 106.33 68.474 C 106.33 60.974 101.084 56.166 93.205 56.166 C 85.705 56.166 80.868 60.576 79.375 68.826 C 79.375 69.573 78.599 69.996 77.853 69.996 L 69.295 68.474 C 68.549 68.474 68.125 67.698 68.125 66.948 C 70 54.205 79.33 45.621 93.205 45.621 L 93.201 45.625 Z  M 88.045 124.375 L 98.125 124.375 C 98.875 124.375 99.648 124.769 99.648 125.897 L 99.648 137.5 C 99.648 138.25 99.254 139.022 98.125 139.022 L 88.045 139.022 C 87.299 139.022 86.523 138.629 86.523 137.5 L 86.523 125.897 C 86.523 125.151 86.92 124.375 88.049 124.375 L 88.045 124.375 Z " fill="rgb(255,255,255)"/></g></svg>