<?xml version="1.0" encoding="UTF-8" standalone="no"?>
<!-- Generator: Gravit.io -->
<svg xmlns="http://www.w3.org/2000/svg" xmlns:xlink="http://www.w3.org/1999/xlink" style="isolation:isolate" viewBox="0 0 200 200" width="200pt" height="200pt"><defs><clipPath id="_clipPath_pOf0Kk7CFuxCyBHFiTcWslJX1m5KRgEk"><rect width="200" height="200"/></clipPath></defs><g clip-path="url(#_clipPath_pOf0Kk7CFuxCyBHFiTcWslJX1m5KRgEk)"><path d=" M 100 9.502 C 50.032 9.502 9.495 50.032 9.495 100 C 9.495 149.968 50.032 190.505 100 190.505 C 149.968 190.505 190.505 149.968 190.505 100 C 190.505 50.032 149.961 9.495 100 9.495 L 100 9.502 Z  M 147.566 71.993 L 99.039 143.568 C 97.598 145.687 95.31 147.128 93.049 147.128 C 90.789 147.128 88.303 145.885 86.699 144.31 L 58.226 115.808 C 56.294 113.861 56.294 110.72 58.226 108.773 L 65.261 101.738 C 67.199 99.809 70.331 99.809 72.268 101.738 L 90.81 120.251 L 131.094 60.818 C 132.655 58.565 135.734 57.977 138.016 59.498 L 146.273 65.099 C 148.521 66.655 149.097 69.729 147.566 71.993 Z " fill="rgb(255,255,255)"/></g></svg>