<?xml version="1.0" encoding="UTF-8" standalone="no"?>
<!-- Generator: Gravit.io -->
<svg xmlns="http://www.w3.org/2000/svg" xmlns:xlink="http://www.w3.org/1999/xlink" style="isolation:isolate" viewBox="0 0 200 200" width="200pt" height="200pt"><defs><clipPath id="_clipPath_nPUkx0rZ5DigPtUlZLZvONro7622Hypd"><rect width="200" height="200"/></clipPath></defs><g clip-path="url(#_clipPath_nPUkx0rZ5DigPtUlZLZvONro7622Hypd)"><path d=" M 189.382 155.065 L 116.248 28.431 C 107.303 12.941 92.701 12.941 83.756 28.431 L 10.636 155.065 C 1.692 170.548 9.022 183.186 26.889 183.186 L 173.129 183.186 C 190.997 183.186 198.29 170.548 189.375 155.065 L 189.382 155.065 Z  M 89.945 64.362 C 92.585 61.526 95.908 60.1 100.002 60.1 C 104.096 60.1 107.419 61.497 110.059 64.304 C 112.641 67.089 113.979 70.616 113.979 74.848 C 113.979 78.455 108.525 105.158 106.707 124.552 L 93.552 124.552 C 91.966 105.158 86.025 78.448 86.025 74.848 C 86.025 70.667 87.363 67.176 89.952 64.362 L 89.945 64.362 Z  M 109.856 156.68 C 107.25 159.295 103.701 160.75 100.009 160.716 C 96.206 160.716 92.905 159.356 90.156 156.68 C 87.47 154.148 85.974 150.604 86.032 146.914 C 86.032 143.103 87.4 139.809 90.156 137.053 C 92.732 134.38 96.298 132.891 100.009 132.937 C 103.813 132.937 107.114 134.297 109.863 137.053 C 112.626 139.816 113.986 143.103 113.986 146.914 C 113.986 150.746 112.619 153.982 109.863 156.68 L 109.856 156.68 Z " fill="rgb(232,76,61)"/></g></svg>